<svg class="svg-icon" style="width: 1em; height: 1em;vertical-align: middle;fill: #e8eaed;overflow: hidden;" viewBox="0 0 1024 1024" version="1.1" xmlns="http://www.w3.org/2000/svg"><path d="M512 0C229.248 0 0 229.248 0 512s229.248 512 512 512 512-229.248 512-512S794.752 0 512 0zM512 913.984c-221.696 0-401.92-180.288-401.92-401.984S290.304 110.016 512 110.016 914.048 290.304 914.048 512 733.696 913.984 512 913.984zM512 155.84C315.264 155.84 155.84 315.264 155.84 512S315.264 868.16 512 868.16 868.16 708.736 868.16 512 708.736 155.84 512 155.84zM771.52 622.528c-0.32-0.192-0.576-0.64-0.832-0.832l-129.024-85.248C643.072 528.512 644.16 520.384 644.16 512s-0.896-16.448-2.496-24.448l129.024-85.248c0.256-0.192 0.576-0.64 0.832-0.832C785.984 435.456 794.048 472.768 794.048 512 794.112 551.168 785.984 588.544 771.52 622.528zM735.488 340.544c-0.128 0.064-0.384 0.064-0.448 0.128L596.544 411.456C584.768 401.536 571.456 393.664 556.736 388.288L548.736 233.216c0-0.192-0.128-0.448-0.128-0.704C624.512 242.432 690.944 282.56 735.488 340.544zM511.936 574.848c-34.752 0-62.848-28.16-62.848-62.848 0-34.688 28.096-62.848 62.848-62.848 34.624 0 62.72 28.16 62.72 62.848C574.656 546.688 546.56 574.848 511.936 574.848zM477.76 232.128C477.696 232.448 477.504 232.896 477.504 233.152L468.288 387.904C452.672 393.408 438.592 401.664 426.304 412.16L287.552 342.848C287.36 342.784 287.04 342.784 286.912 342.656 331.904 282.944 399.872 241.6 477.76 232.128zM251.456 404.032C251.584 404.16 251.776 404.416 251.904 404.48L382.08 488.832C380.8 496.32 379.776 504 379.776 512c0 7.936 1.024 15.616 2.368 23.168L251.968 619.456C251.84 619.584 251.584 619.84 251.456 619.968 237.568 586.688 229.888 550.208 229.888 512 229.888 473.728 237.632 437.376 251.456 404.032zM286.912 681.408c0.128-0.064 0.512-0.128 0.704-0.192l138.688-69.312c12.288 10.56 26.368 18.752 41.984 24.192l9.216 154.752c0 0.256 0.256 0.704 0.256 1.024C399.936 782.4 331.904 741.12 286.912 681.408zM548.672 791.488c0-0.192 0.128-0.448 0.128-0.64L556.8 635.776C571.456 630.4 584.832 622.528 596.608 612.608l138.496 70.784c0.128 0.064 0.32 0.064 0.448 0.128C690.944 741.44 624.512 781.568 548.672 791.488z"  /></svg>